<svg id="Component_9_1" data-name="Component 9 – 1" xmlns="http://www.w3.org/2000/svg" xmlns:xlink="http://www.w3.org/1999/xlink" width="94.6" height="102.2" viewBox="0 0 94.6 102.2">
  <defs>
    <linearGradient id="linear-gradient" y1="0.5" x2="1" y2="0.5" gradientUnits="objectBoundingBox">
      <stop offset="0" stop-color="#f08064"/>
      <stop offset="1" stop-color="#e72864"/>
    </linearGradient>
    <linearGradient id="linear-gradient-2" y1="0.499" x2="1" y2="0.499" gradientUnits="objectBoundingBox">
      <stop offset="0" stop-color="#eb575a"/>
      <stop offset="1" stop-color="#ac1d53"/>
    </linearGradient>
    <linearGradient id="linear-gradient-3" x1="0" y1="0.501" x2="1" y2="0.501" xlink:href="#linear-gradient-2"/>
  </defs>
  <path id="Path_73" data-name="Path 73" d="M327.64,333.1h-60a17.306,17.306,0,0,0-17.3,17.3V418a17.306,17.306,0,0,0,17.3,17.3h60a17.306,17.306,0,0,0,17.3-17.3V350.4A17.3,17.3,0,0,0,327.64,333.1Z" transform="translate(-250.34 -333.1)" fill="url(#linear-gradient)"/>
  <g id="Group_35" data-name="Group 35" transform="translate(-250.34 -333.1)">
    <path id="Path_74" data-name="Path 74" d="M306.49,389.87a16.956,16.956,0,0,1,2.91,13.26,18.488,18.488,0,0,1-.52,2.04,16.562,16.562,0,0,1-11.59,11.01c-.26.06-.52.13-.79.18s-.55.12-.82.16a18.129,18.129,0,0,1-2.84.23h-.07a17.473,17.473,0,0,1-7.32-1.65,18.31,18.31,0,0,1-3.96-2.55,18.083,18.083,0,0,1-6.42-13.84V390.4a3.15,3.15,0,0,1,3.15-3.15h0a3.15,3.15,0,0,1,3.15,3.15v8.31a11.806,11.806,0,0,0,4.19,9.03,11.038,11.038,0,0,0,9.09,2.55c.18-.03.35-.06.53-.1.16-.04.34-.08.52-.13a10.143,10.143,0,0,0,7.19-6.86,10.81,10.81,0,0,0-1.33-9.43c-.19-.28-.4-.55-.61-.81l-12.16-14.47-9.5-11.3a17.076,17.076,0,0,1-3.1-16.21,16.558,16.558,0,0,1,11.6-11.01c.26-.06.53-.13.8-.19a17.963,17.963,0,0,1,21.25,13.48c.04.12.06.24.09.37l-6.15,1.31a11.771,11.771,0,0,0-1.27-3.33,11.417,11.417,0,0,0-3.81-4.04,11.624,11.624,0,0,0-8.8-1.63c-.18.04-.35.08-.52.13a10.144,10.144,0,0,0-7.2,6.85,10.814,10.814,0,0,0,1.94,10.24l1.75,2.09,7.85,9.33,12.07,14.36C306.03,389.26,306.27,389.55,306.49,389.87Z" fill="#fff"/>
    <path id="Path_75" data-name="Path 75" d="M313.1,415.46a10.152,10.152,0,0,1-7.18,6.85c-.18.04-.36.09-.53.13a11.7,11.7,0,0,1-12.62-5.67h.07a18.125,18.125,0,0,0,2.84-.23c.27-.04.54-.1.82-.16s.53-.12.79-.18a16.562,16.562,0,0,0,11.59-11.01,14.884,14.884,0,0,0,.52-2.04l1.75,2.09A10.662,10.662,0,0,1,313.1,415.46Z" fill="url(#linear-gradient-2)"/>
    <path id="Path_76" data-name="Path 76" d="M302.5,351.64a18.013,18.013,0,0,0-2.91.23c-.27.05-.54.1-.8.15s-.53.13-.8.19a16.571,16.571,0,0,0-11.6,11.02,14.751,14.751,0,0,0-.52,2.03l-1.75-2.09a10.762,10.762,0,0,1-1.94-10.24,10.162,10.162,0,0,1,7.2-6.85c.17-.04.34-.09.52-.13a11.624,11.624,0,0,1,8.8,1.63A11.8,11.8,0,0,1,302.5,351.64Z" fill="url(#linear-gradient-3)"/>
    <path id="Path_77" data-name="Path 77" d="M317.05,376.77a3.15,3.15,0,0,1-3.15-3.15v-3.95a11.821,11.821,0,0,0-4.19-9.03,11.029,11.029,0,0,0-9.09-2.55c-.17.03-.35.06-.52.1-.19.04-.36.08-.54.13a10.147,10.147,0,0,0-7.18,6.86,10.843,10.843,0,0,0,1.33,9.43c.19.28.4.55.61.81l12.16,14.46,9.51,11.31a17.076,17.076,0,0,1,3.1,16.21,16.539,16.539,0,0,1-11.6,11.01c-.27.07-.53.13-.79.19a17.963,17.963,0,0,1-21.26-13.47c-.04-.12-.06-.24-.09-.37l6.16-1.31a11.675,11.675,0,0,0,13.87,9c.17-.04.35-.08.53-.13a10.134,10.134,0,0,0,7.18-6.85,10.788,10.788,0,0,0-1.94-10.24l-1.75-2.09-7.85-9.33-12.07-14.36c-.24-.3-.49-.6-.7-.92a17.027,17.027,0,0,1-2.92-13.25,18.321,18.321,0,0,1,.52-2.03,16.552,16.552,0,0,1,11.6-11.02c.27-.06.53-.13.8-.19s.53-.11.8-.15a17.837,17.837,0,0,1,2.91-.23,17.483,17.483,0,0,1,7.33,1.65A18.135,18.135,0,0,1,320.2,369.7v3.95a3.143,3.143,0,0,1-3.15,3.12Z" fill="#fff"/>
  </g>
</svg>
